<svg width="482" height="311" viewBox="0 0 482 311" fill="none" xmlns="http://www.w3.org/2000/svg">
<path d="M141 115C141 62.5 183.5 20 236 20M331 115C331 167.5 288.5 210 236 210C218.24 210.007 200.833 205.036 185.755 195.65C170.678 186.264 158.533 172.84 150.7 156.9M261 50H321M261 80H291M341 220L321 200" stroke="#555770" stroke-width="15" stroke-linecap="round" stroke-linejoin="round"/>
<path d="M21.4886 279.727V303H17.2386L7.11364 288.352H6.94318V303H2.02273V279.727H6.34091L16.3864 294.364H16.5909V279.727H21.4886ZM33.4176 303.341C31.6222 303.341 30.0767 302.977 28.7812 302.25C27.4934 301.515 26.5009 300.477 25.804 299.136C25.107 297.788 24.7585 296.193 24.7585 294.352C24.7585 292.557 25.107 290.981 25.804 289.625C26.5009 288.269 27.482 287.212 28.7472 286.455C30.0199 285.697 31.5123 285.318 33.2244 285.318C34.3759 285.318 35.4479 285.504 36.4403 285.875C37.4403 286.239 38.3116 286.788 39.054 287.523C39.804 288.258 40.3873 289.182 40.804 290.295C41.2206 291.402 41.429 292.697 41.429 294.182V295.511H26.6903V292.511H36.8722C36.8722 291.814 36.7206 291.197 36.4176 290.659C36.1146 290.121 35.6941 289.701 35.1562 289.398C34.6259 289.087 34.0085 288.932 33.304 288.932C32.5691 288.932 31.9176 289.102 31.3494 289.443C30.7888 289.777 30.3494 290.227 30.0312 290.795C29.7131 291.356 29.5502 291.981 29.5426 292.67V295.523C29.5426 296.386 29.7017 297.133 30.0199 297.761C30.3456 298.39 30.804 298.875 31.3949 299.216C31.9858 299.557 32.6866 299.727 33.4972 299.727C34.035 299.727 34.5275 299.652 34.9744 299.5C35.4214 299.348 35.804 299.121 36.1222 298.818C36.4403 298.515 36.6828 298.144 36.8494 297.705L41.3267 298C41.0994 299.076 40.6335 300.015 39.929 300.818C39.232 301.614 38.3305 302.235 37.2244 302.682C36.1259 303.121 34.857 303.341 33.4176 303.341ZM49.429 292.909V303H44.5881V285.545H49.2017V288.625H49.4062C49.7926 287.61 50.4403 286.807 51.3494 286.216C52.2585 285.617 53.3608 285.318 54.6562 285.318C55.8684 285.318 56.9252 285.583 57.8267 286.114C58.7282 286.644 59.429 287.402 59.929 288.386C60.429 289.364 60.679 290.53 60.679 291.886V303H55.8381V292.75C55.8456 291.682 55.5729 290.848 55.0199 290.25C54.4669 289.644 53.7055 289.341 52.7358 289.341C52.0843 289.341 51.5085 289.481 51.0085 289.761C50.5161 290.042 50.1297 290.451 49.8494 290.989C49.5767 291.519 49.4366 292.159 49.429 292.909ZM69.3352 292.909V303H64.4943V279.727H69.1989V288.625H69.4034C69.7973 287.595 70.4337 286.788 71.3125 286.205C72.1913 285.614 73.2936 285.318 74.6193 285.318C75.8314 285.318 76.8883 285.583 77.7898 286.114C78.6989 286.636 79.4034 287.39 79.9034 288.375C80.411 289.352 80.661 290.523 80.6534 291.886V303H75.8125V292.75C75.8201 291.674 75.5473 290.837 74.9943 290.239C74.4489 289.64 73.6837 289.341 72.6989 289.341C72.0398 289.341 71.4564 289.481 70.9489 289.761C70.4489 290.042 70.0549 290.451 69.767 290.989C69.4867 291.519 69.3428 292.159 69.3352 292.909ZM95.6562 295.568V285.545H100.497V303H95.8494V299.83H95.6676C95.2737 300.852 94.6184 301.674 93.7017 302.295C92.7926 302.917 91.6828 303.227 90.3722 303.227C89.2055 303.227 88.179 302.962 87.2926 302.432C86.4063 301.902 85.7131 301.148 85.2131 300.17C84.7206 299.193 84.4706 298.023 84.4631 296.659V285.545H89.304V295.795C89.3116 296.826 89.5881 297.64 90.1335 298.239C90.679 298.837 91.41 299.136 92.3267 299.136C92.91 299.136 93.4555 299.004 93.9631 298.739C94.4706 298.466 94.8797 298.064 95.1903 297.534C95.5085 297.004 95.6638 296.348 95.6562 295.568ZM104.369 303V285.545H108.983V288.625H109.188C109.551 287.602 110.157 286.795 111.006 286.205C111.854 285.614 112.869 285.318 114.051 285.318C115.248 285.318 116.267 285.617 117.108 286.216C117.949 286.807 118.509 287.61 118.79 288.625H118.972C119.328 287.625 119.972 286.826 120.903 286.227C121.843 285.621 122.953 285.318 124.233 285.318C125.862 285.318 127.184 285.837 128.199 286.875C129.222 287.905 129.733 289.367 129.733 291.261V303H124.903V292.216C124.903 291.246 124.646 290.519 124.131 290.034C123.616 289.549 122.972 289.307 122.199 289.307C121.32 289.307 120.634 289.587 120.142 290.148C119.65 290.701 119.403 291.432 119.403 292.341V303H114.71V292.114C114.71 291.258 114.464 290.576 113.972 290.068C113.487 289.561 112.847 289.307 112.051 289.307C111.513 289.307 111.028 289.443 110.597 289.716C110.172 289.981 109.835 290.356 109.585 290.841C109.335 291.318 109.21 291.879 109.21 292.523V303H104.369ZM138.534 303.33C137.42 303.33 136.428 303.136 135.557 302.75C134.686 302.356 133.996 301.777 133.489 301.011C132.989 300.239 132.739 299.277 132.739 298.125C132.739 297.155 132.917 296.341 133.273 295.682C133.629 295.023 134.114 294.492 134.727 294.091C135.341 293.689 136.038 293.386 136.818 293.182C137.606 292.977 138.432 292.833 139.295 292.75C140.311 292.644 141.129 292.545 141.75 292.455C142.371 292.356 142.822 292.212 143.102 292.023C143.383 291.833 143.523 291.553 143.523 291.182V291.114C143.523 290.394 143.295 289.837 142.841 289.443C142.394 289.049 141.758 288.852 140.932 288.852C140.061 288.852 139.367 289.045 138.852 289.432C138.337 289.811 137.996 290.288 137.83 290.864L133.352 290.5C133.58 289.439 134.027 288.523 134.693 287.75C135.36 286.97 136.22 286.371 137.273 285.955C138.333 285.53 139.561 285.318 140.955 285.318C141.924 285.318 142.852 285.432 143.739 285.659C144.633 285.886 145.424 286.239 146.114 286.716C146.811 287.193 147.36 287.807 147.761 288.557C148.163 289.299 148.364 290.189 148.364 291.227V303H143.773V300.58H143.636C143.356 301.125 142.981 301.606 142.511 302.023C142.042 302.432 141.477 302.754 140.818 302.989C140.159 303.216 139.398 303.33 138.534 303.33ZM139.92 299.989C140.633 299.989 141.261 299.848 141.807 299.568C142.352 299.28 142.78 298.894 143.091 298.409C143.402 297.924 143.557 297.375 143.557 296.761V294.909C143.405 295.008 143.197 295.098 142.932 295.182C142.674 295.258 142.383 295.33 142.057 295.398C141.731 295.458 141.405 295.515 141.08 295.568C140.754 295.614 140.458 295.655 140.193 295.693C139.625 295.777 139.129 295.909 138.705 296.091C138.28 296.273 137.951 296.519 137.716 296.83C137.481 297.133 137.364 297.511 137.364 297.966C137.364 298.625 137.602 299.129 138.08 299.477C138.564 299.818 139.178 299.989 139.92 299.989ZM167.412 303.341C165.624 303.341 164.086 302.962 162.798 302.205C161.518 301.439 160.533 300.379 159.844 299.023C159.162 297.667 158.821 296.106 158.821 294.341C158.821 292.553 159.166 290.985 159.855 289.636C160.552 288.28 161.541 287.223 162.821 286.466C164.101 285.701 165.624 285.318 167.389 285.318C168.912 285.318 170.245 285.595 171.389 286.148C172.533 286.701 173.438 287.477 174.105 288.477C174.772 289.477 175.139 290.652 175.207 292H170.639C170.51 291.129 170.17 290.428 169.616 289.898C169.071 289.36 168.355 289.091 167.469 289.091C166.719 289.091 166.063 289.295 165.503 289.705C164.95 290.106 164.518 290.693 164.207 291.466C163.897 292.239 163.741 293.174 163.741 294.273C163.741 295.386 163.893 296.333 164.196 297.114C164.507 297.894 164.942 298.489 165.503 298.898C166.063 299.307 166.719 299.511 167.469 299.511C168.022 299.511 168.518 299.398 168.957 299.17C169.404 298.943 169.772 298.614 170.06 298.182C170.355 297.742 170.548 297.216 170.639 296.602H175.207C175.132 297.936 174.768 299.11 174.116 300.125C173.473 301.133 172.582 301.92 171.446 302.489C170.31 303.057 168.965 303.341 167.412 303.341ZM186.193 303.341C184.428 303.341 182.902 302.966 181.614 302.216C180.333 301.458 179.345 300.405 178.648 299.057C177.951 297.701 177.602 296.129 177.602 294.341C177.602 292.538 177.951 290.962 178.648 289.614C179.345 288.258 180.333 287.205 181.614 286.455C182.902 285.697 184.428 285.318 186.193 285.318C187.958 285.318 189.481 285.697 190.761 286.455C192.049 287.205 193.042 288.258 193.739 289.614C194.436 290.962 194.784 292.538 194.784 294.341C194.784 296.129 194.436 297.701 193.739 299.057C193.042 300.405 192.049 301.458 190.761 302.216C189.481 302.966 187.958 303.341 186.193 303.341ZM186.216 299.591C187.019 299.591 187.689 299.364 188.227 298.909C188.765 298.447 189.17 297.818 189.443 297.023C189.723 296.227 189.864 295.322 189.864 294.307C189.864 293.292 189.723 292.386 189.443 291.591C189.17 290.795 188.765 290.167 188.227 289.705C187.689 289.242 187.019 289.011 186.216 289.011C185.405 289.011 184.723 289.242 184.17 289.705C183.625 290.167 183.212 290.795 182.932 291.591C182.659 292.386 182.523 293.292 182.523 294.307C182.523 295.322 182.659 296.227 182.932 297.023C183.212 297.818 183.625 298.447 184.17 298.909C184.723 299.364 185.405 299.591 186.216 299.591ZM202.773 292.909V303H197.932V285.545H202.545V288.625H202.75C203.136 287.61 203.784 286.807 204.693 286.216C205.602 285.617 206.705 285.318 208 285.318C209.212 285.318 210.269 285.583 211.17 286.114C212.072 286.644 212.773 287.402 213.273 288.386C213.773 289.364 214.023 290.53 214.023 291.886V303H209.182V292.75C209.189 291.682 208.917 290.848 208.364 290.25C207.811 289.644 207.049 289.341 206.08 289.341C205.428 289.341 204.852 289.481 204.352 289.761C203.86 290.042 203.473 290.451 203.193 290.989C202.92 291.519 202.78 292.159 202.773 292.909ZM227.122 285.545V289.182H216.611V285.545H227.122ZM218.997 281.364H223.838V297.636C223.838 298.083 223.906 298.432 224.043 298.682C224.179 298.924 224.368 299.095 224.611 299.193C224.861 299.292 225.149 299.341 225.474 299.341C225.702 299.341 225.929 299.322 226.156 299.284C226.384 299.239 226.558 299.205 226.679 299.182L227.44 302.784C227.198 302.86 226.857 302.947 226.418 303.045C225.978 303.152 225.444 303.216 224.815 303.239C223.649 303.284 222.626 303.129 221.747 302.773C220.876 302.417 220.198 301.864 219.713 301.114C219.228 300.364 218.99 299.417 218.997 298.273V281.364ZM235.253 303.33C234.139 303.33 233.147 303.136 232.276 302.75C231.404 302.356 230.715 301.777 230.207 301.011C229.707 300.239 229.457 299.277 229.457 298.125C229.457 297.155 229.635 296.341 229.991 295.682C230.348 295.023 230.832 294.492 231.446 294.091C232.06 293.689 232.757 293.386 233.537 293.182C234.325 292.977 235.151 292.833 236.014 292.75C237.029 292.644 237.848 292.545 238.469 292.455C239.09 292.356 239.541 292.212 239.821 292.023C240.101 291.833 240.241 291.553 240.241 291.182V291.114C240.241 290.394 240.014 289.837 239.56 289.443C239.113 289.049 238.476 288.852 237.651 288.852C236.779 288.852 236.086 289.045 235.571 289.432C235.056 289.811 234.715 290.288 234.548 290.864L230.071 290.5C230.298 289.439 230.745 288.523 231.412 287.75C232.079 286.97 232.938 286.371 233.991 285.955C235.052 285.53 236.279 285.318 237.673 285.318C238.643 285.318 239.571 285.432 240.457 285.659C241.351 285.886 242.143 286.239 242.832 286.716C243.529 287.193 244.079 287.807 244.48 288.557C244.882 289.299 245.082 290.189 245.082 291.227V303H240.491V300.58H240.355C240.075 301.125 239.7 301.606 239.23 302.023C238.76 302.432 238.196 302.754 237.537 302.989C236.878 303.216 236.116 303.33 235.253 303.33ZM236.639 299.989C237.351 299.989 237.98 299.848 238.526 299.568C239.071 299.28 239.499 298.894 239.81 298.409C240.12 297.924 240.276 297.375 240.276 296.761V294.909C240.124 295.008 239.916 295.098 239.651 295.182C239.393 295.258 239.101 295.33 238.776 295.398C238.45 295.458 238.124 295.515 237.798 295.568C237.473 295.614 237.177 295.655 236.912 295.693C236.344 295.777 235.848 295.909 235.423 296.091C234.999 296.273 234.67 296.519 234.435 296.83C234.2 297.133 234.082 297.511 234.082 297.966C234.082 298.625 234.321 299.129 234.798 299.477C235.283 299.818 235.897 299.989 236.639 299.989ZM265.631 285.545V289.182H254.858V285.545H265.631ZM257.324 303V284.284C257.324 283.019 257.57 281.97 258.062 281.136C258.562 280.303 259.244 279.678 260.108 279.261C260.972 278.845 261.953 278.636 263.051 278.636C263.794 278.636 264.472 278.693 265.085 278.807C265.706 278.92 266.169 279.023 266.472 279.114L265.608 282.75C265.419 282.689 265.184 282.633 264.903 282.58C264.631 282.527 264.35 282.5 264.062 282.5C263.35 282.5 262.854 282.667 262.574 283C262.294 283.326 262.153 283.784 262.153 284.375V303H257.324ZM275.849 303.341C274.084 303.341 272.558 302.966 271.27 302.216C269.99 301.458 269.001 300.405 268.304 299.057C267.607 297.701 267.259 296.129 267.259 294.341C267.259 292.538 267.607 290.962 268.304 289.614C269.001 288.258 269.99 287.205 271.27 286.455C272.558 285.697 274.084 285.318 275.849 285.318C277.615 285.318 279.137 285.697 280.418 286.455C281.705 287.205 282.698 288.258 283.395 289.614C284.092 290.962 284.44 292.538 284.44 294.341C284.44 296.129 284.092 297.701 283.395 299.057C282.698 300.405 281.705 301.458 280.418 302.216C279.137 302.966 277.615 303.341 275.849 303.341ZM275.872 299.591C276.675 299.591 277.346 299.364 277.884 298.909C278.421 298.447 278.827 297.818 279.099 297.023C279.38 296.227 279.52 295.322 279.52 294.307C279.52 293.292 279.38 292.386 279.099 291.591C278.827 290.795 278.421 290.167 277.884 289.705C277.346 289.242 276.675 289.011 275.872 289.011C275.062 289.011 274.38 289.242 273.827 289.705C273.281 290.167 272.868 290.795 272.588 291.591C272.315 292.386 272.179 293.292 272.179 294.307C272.179 295.322 272.315 296.227 272.588 297.023C272.868 297.818 273.281 298.447 273.827 298.909C274.38 299.364 275.062 299.591 275.872 299.591ZM287.588 303V285.545H292.429V303H287.588ZM290.02 283.295C289.3 283.295 288.683 283.057 288.168 282.58C287.66 282.095 287.406 281.515 287.406 280.841C287.406 280.174 287.66 279.602 288.168 279.125C288.683 278.64 289.3 278.398 290.02 278.398C290.74 278.398 291.353 278.64 291.861 279.125C292.376 279.602 292.634 280.174 292.634 280.841C292.634 281.515 292.376 282.095 291.861 282.58C291.353 283.057 290.74 283.295 290.02 283.295ZM311.668 303.341C309.872 303.341 308.327 302.977 307.031 302.25C305.743 301.515 304.751 300.477 304.054 299.136C303.357 297.788 303.009 296.193 303.009 294.352C303.009 292.557 303.357 290.981 304.054 289.625C304.751 288.269 305.732 287.212 306.997 286.455C308.27 285.697 309.762 285.318 311.474 285.318C312.626 285.318 313.698 285.504 314.69 285.875C315.69 286.239 316.562 286.788 317.304 287.523C318.054 288.258 318.637 289.182 319.054 290.295C319.471 291.402 319.679 292.697 319.679 294.182V295.511H304.94V292.511H315.122C315.122 291.814 314.971 291.197 314.668 290.659C314.365 290.121 313.944 289.701 313.406 289.398C312.876 289.087 312.259 288.932 311.554 288.932C310.819 288.932 310.168 289.102 309.599 289.443C309.039 289.777 308.599 290.227 308.281 290.795C307.963 291.356 307.8 291.981 307.793 292.67V295.523C307.793 296.386 307.952 297.133 308.27 297.761C308.596 298.39 309.054 298.875 309.645 299.216C310.236 299.557 310.937 299.727 311.747 299.727C312.285 299.727 312.777 299.652 313.224 299.5C313.671 299.348 314.054 299.121 314.372 298.818C314.69 298.515 314.933 298.144 315.099 297.705L319.577 298C319.349 299.076 318.884 300.015 318.179 300.818C317.482 301.614 316.58 302.235 315.474 302.682C314.376 303.121 313.107 303.341 311.668 303.341ZM327.679 292.909V303H322.838V285.545H327.452V288.625H327.656C328.043 287.61 328.69 286.807 329.599 286.216C330.509 285.617 331.611 285.318 332.906 285.318C334.118 285.318 335.175 285.583 336.077 286.114C336.978 286.644 337.679 287.402 338.179 288.386C338.679 289.364 338.929 290.53 338.929 291.886V303H334.088V292.75C334.096 291.682 333.823 290.848 333.27 290.25C332.717 289.644 331.955 289.341 330.986 289.341C330.334 289.341 329.759 289.481 329.259 289.761C328.766 290.042 328.38 290.451 328.099 290.989C327.827 291.519 327.687 292.159 327.679 292.909ZM350.631 303.341C348.843 303.341 347.305 302.962 346.017 302.205C344.737 301.439 343.752 300.379 343.062 299.023C342.381 297.667 342.04 296.106 342.04 294.341C342.04 292.553 342.384 290.985 343.074 289.636C343.771 288.28 344.759 287.223 346.04 286.466C347.32 285.701 348.843 285.318 350.608 285.318C352.131 285.318 353.464 285.595 354.608 286.148C355.752 286.701 356.657 287.477 357.324 288.477C357.991 289.477 358.358 290.652 358.426 292H353.858C353.729 291.129 353.388 290.428 352.835 289.898C352.29 289.36 351.574 289.091 350.688 289.091C349.938 289.091 349.282 289.295 348.722 289.705C348.169 290.106 347.737 290.693 347.426 291.466C347.116 292.239 346.96 293.174 346.96 294.273C346.96 295.386 347.112 296.333 347.415 297.114C347.725 297.894 348.161 298.489 348.722 298.898C349.282 299.307 349.938 299.511 350.688 299.511C351.241 299.511 351.737 299.398 352.176 299.17C352.623 298.943 352.991 298.614 353.278 298.182C353.574 297.742 353.767 297.216 353.858 296.602H358.426C358.35 297.936 357.987 299.11 357.335 300.125C356.691 301.133 355.801 301.92 354.665 302.489C353.528 303.057 352.184 303.341 350.631 303.341ZM369.412 303.341C367.647 303.341 366.12 302.966 364.832 302.216C363.552 301.458 362.563 300.405 361.866 299.057C361.17 297.701 360.821 296.129 360.821 294.341C360.821 292.538 361.17 290.962 361.866 289.614C362.563 288.258 363.552 287.205 364.832 286.455C366.12 285.697 367.647 285.318 369.412 285.318C371.177 285.318 372.7 285.697 373.98 286.455C375.268 287.205 376.26 288.258 376.957 289.614C377.654 290.962 378.003 292.538 378.003 294.341C378.003 296.129 377.654 297.701 376.957 299.057C376.26 300.405 375.268 301.458 373.98 302.216C372.7 302.966 371.177 303.341 369.412 303.341ZM369.435 299.591C370.238 299.591 370.908 299.364 371.446 298.909C371.984 298.447 372.389 297.818 372.662 297.023C372.942 296.227 373.082 295.322 373.082 294.307C373.082 293.292 372.942 292.386 372.662 291.591C372.389 290.795 371.984 290.167 371.446 289.705C370.908 289.242 370.238 289.011 369.435 289.011C368.624 289.011 367.942 289.242 367.389 289.705C366.844 290.167 366.431 290.795 366.151 291.591C365.878 292.386 365.741 293.292 365.741 294.307C365.741 295.322 365.878 296.227 366.151 297.023C366.431 297.818 366.844 298.447 367.389 298.909C367.942 299.364 368.624 299.591 369.435 299.591ZM385.991 292.909V303H381.151V285.545H385.764V288.625H385.969C386.355 287.61 387.003 286.807 387.912 286.216C388.821 285.617 389.923 285.318 391.219 285.318C392.431 285.318 393.488 285.583 394.389 286.114C395.291 286.644 395.991 287.402 396.491 288.386C396.991 289.364 397.241 290.53 397.241 291.886V303H392.401V292.75C392.408 291.682 392.135 290.848 391.582 290.25C391.029 289.644 390.268 289.341 389.298 289.341C388.647 289.341 388.071 289.481 387.571 289.761C387.079 290.042 386.692 290.451 386.412 290.989C386.139 291.519 385.999 292.159 385.991 292.909ZM410.341 285.545V289.182H399.83V285.545H410.341ZM402.216 281.364H407.057V297.636C407.057 298.083 407.125 298.432 407.261 298.682C407.398 298.924 407.587 299.095 407.83 299.193C408.08 299.292 408.367 299.341 408.693 299.341C408.92 299.341 409.148 299.322 409.375 299.284C409.602 299.239 409.777 299.205 409.898 299.182L410.659 302.784C410.417 302.86 410.076 302.947 409.636 303.045C409.197 303.152 408.663 303.216 408.034 303.239C406.867 303.284 405.845 303.129 404.966 302.773C404.095 302.417 403.417 301.864 402.932 301.114C402.447 300.364 402.208 299.417 402.216 298.273V281.364ZM413.494 303V285.545H418.188V288.591H418.369C418.688 287.508 419.222 286.689 419.972 286.136C420.722 285.576 421.585 285.295 422.562 285.295C422.805 285.295 423.066 285.311 423.347 285.341C423.627 285.371 423.873 285.413 424.085 285.466V289.761C423.858 289.693 423.544 289.633 423.142 289.58C422.741 289.527 422.373 289.5 422.04 289.5C421.328 289.5 420.691 289.655 420.131 289.966C419.578 290.269 419.138 290.693 418.812 291.239C418.494 291.784 418.335 292.413 418.335 293.125V303H413.494ZM431.065 303.33C429.952 303.33 428.959 303.136 428.088 302.75C427.217 302.356 426.527 301.777 426.02 301.011C425.52 300.239 425.27 299.277 425.27 298.125C425.27 297.155 425.448 296.341 425.804 295.682C426.16 295.023 426.645 294.492 427.259 294.091C427.872 293.689 428.569 293.386 429.349 293.182C430.137 292.977 430.963 292.833 431.827 292.75C432.842 292.644 433.66 292.545 434.281 292.455C434.902 292.356 435.353 292.212 435.634 292.023C435.914 291.833 436.054 291.553 436.054 291.182V291.114C436.054 290.394 435.827 289.837 435.372 289.443C434.925 289.049 434.289 288.852 433.463 288.852C432.592 288.852 431.899 289.045 431.384 289.432C430.868 289.811 430.527 290.288 430.361 290.864L425.884 290.5C426.111 289.439 426.558 288.523 427.224 287.75C427.891 286.97 428.751 286.371 429.804 285.955C430.865 285.53 432.092 285.318 433.486 285.318C434.455 285.318 435.384 285.432 436.27 285.659C437.164 285.886 437.955 286.239 438.645 286.716C439.342 287.193 439.891 287.807 440.293 288.557C440.694 289.299 440.895 290.189 440.895 291.227V303H436.304V300.58H436.168C435.887 301.125 435.512 301.606 435.043 302.023C434.573 302.432 434.009 302.754 433.349 302.989C432.69 303.216 431.929 303.33 431.065 303.33ZM432.452 299.989C433.164 299.989 433.793 299.848 434.338 299.568C434.884 299.28 435.312 298.894 435.622 298.409C435.933 297.924 436.088 297.375 436.088 296.761V294.909C435.937 295.008 435.728 295.098 435.463 295.182C435.205 295.258 434.914 295.33 434.588 295.398C434.262 295.458 433.937 295.515 433.611 295.568C433.285 295.614 432.99 295.655 432.724 295.693C432.156 295.777 431.66 295.909 431.236 296.091C430.812 296.273 430.482 296.519 430.247 296.83C430.012 297.133 429.895 297.511 429.895 297.966C429.895 298.625 430.134 299.129 430.611 299.477C431.096 299.818 431.709 299.989 432.452 299.989ZM451.082 303.284C449.757 303.284 448.556 302.943 447.48 302.261C446.412 301.572 445.563 300.561 444.935 299.227C444.313 297.886 444.003 296.242 444.003 294.295C444.003 292.295 444.325 290.633 444.969 289.307C445.613 287.973 446.469 286.977 447.537 286.318C448.613 285.652 449.791 285.318 451.071 285.318C452.048 285.318 452.863 285.485 453.514 285.818C454.173 286.144 454.704 286.553 455.105 287.045C455.514 287.53 455.825 288.008 456.037 288.477H456.185V279.727H461.014V303H456.241V300.205H456.037C455.81 300.689 455.488 301.17 455.071 301.648C454.662 302.117 454.128 302.508 453.469 302.818C452.817 303.129 452.022 303.284 451.082 303.284ZM452.616 299.432C453.397 299.432 454.056 299.22 454.594 298.795C455.139 298.364 455.556 297.761 455.844 296.989C456.139 296.216 456.287 295.311 456.287 294.273C456.287 293.235 456.143 292.333 455.855 291.568C455.567 290.803 455.151 290.212 454.605 289.795C454.06 289.379 453.397 289.17 452.616 289.17C451.821 289.17 451.151 289.386 450.605 289.818C450.06 290.25 449.647 290.848 449.366 291.614C449.086 292.379 448.946 293.265 448.946 294.273C448.946 295.288 449.086 296.186 449.366 296.966C449.654 297.739 450.067 298.345 450.605 298.784C451.151 299.216 451.821 299.432 452.616 299.432ZM469.972 303.33C468.858 303.33 467.866 303.136 466.994 302.75C466.123 302.356 465.434 301.777 464.926 301.011C464.426 300.239 464.176 299.277 464.176 298.125C464.176 297.155 464.354 296.341 464.71 295.682C465.066 295.023 465.551 294.492 466.165 294.091C466.778 293.689 467.475 293.386 468.256 293.182C469.044 292.977 469.869 292.833 470.733 292.75C471.748 292.644 472.566 292.545 473.188 292.455C473.809 292.356 474.259 292.212 474.54 292.023C474.82 291.833 474.96 291.553 474.96 291.182V291.114C474.96 290.394 474.733 289.837 474.278 289.443C473.831 289.049 473.195 288.852 472.369 288.852C471.498 288.852 470.805 289.045 470.29 289.432C469.775 289.811 469.434 290.288 469.267 290.864L464.79 290.5C465.017 289.439 465.464 288.523 466.131 287.75C466.797 286.97 467.657 286.371 468.71 285.955C469.771 285.53 470.998 285.318 472.392 285.318C473.362 285.318 474.29 285.432 475.176 285.659C476.07 285.886 476.862 286.239 477.551 286.716C478.248 287.193 478.797 287.807 479.199 288.557C479.6 289.299 479.801 290.189 479.801 291.227V303H475.21V300.58H475.074C474.794 301.125 474.419 301.606 473.949 302.023C473.479 302.432 472.915 302.754 472.256 302.989C471.597 303.216 470.835 303.33 469.972 303.33ZM471.358 299.989C472.07 299.989 472.699 299.848 473.244 299.568C473.79 299.28 474.218 298.894 474.528 298.409C474.839 297.924 474.994 297.375 474.994 296.761V294.909C474.843 295.008 474.634 295.098 474.369 295.182C474.112 295.258 473.82 295.33 473.494 295.398C473.169 295.458 472.843 295.515 472.517 295.568C472.191 295.614 471.896 295.655 471.631 295.693C471.063 295.777 470.566 295.909 470.142 296.091C469.718 296.273 469.388 296.519 469.153 296.83C468.919 297.133 468.801 297.511 468.801 297.966C468.801 298.625 469.04 299.129 469.517 299.477C470.002 299.818 470.616 299.989 471.358 299.989Z" fill="#555770"/>
</svg>
